# xmcd
#
# Track frame offsets:
#	150
#	15561
#	29986
#	44542
#	58300
#	74477
#	91615
#	107892
#	122064
#	136532
#
# Disc length: 2062 seconds
#
# Revision: 0
# Processed by: cddbd v1.5.2PL0 Copyright (c) Steve Scherf et al.
# Submitted via: EZCDAudioConverter 4.0.4.2
#
DISCID=8c080c0a
DTITLE=Marie Osmond - Music Is Medicine
DYEAR=2016
DGENRE=Country
TTITLE0=Music Is Medicine
TTITLE1=Unbreak This Breakup
TTITLE2=Give Me A Good Song
TTITLE3=Getting Better All The Time
TTITLE4=Baby You're Crazy
TTITLE5=I'd Love To Be Your Last
TTITLE6=Love This Tough
TTITLE7=Then There's You
TTITLE8=Wild and Sweet
TTITLE9=I'll Find You
EXTD=
EXTT0=
EXTT1=
EXTT2=
EXTT3=
EXTT4=
EXTT5=
EXTT6=
EXTT7=
EXTT8=
EXTT9=
PLAYORDER=
